G04*
G04 #@! TF.GenerationSoftware,Altium Limited,Altium Designer,26.3.0 (6)*
G04*
G04 Layer_Color=65535*
%FSLAX44Y44*%
%MOMM*%
G71*
G04*
G04 #@! TF.SameCoordinates,B5802CA9-BCF9-4A3E-B916-5DC5D81B4571*
G04*
G04*
G04 #@! TF.FilePolarity,Positive*
G04*
G01*
G75*
%ADD10C,0.2000*%
%ADD11C,0.2500*%
%ADD12C,0.1270*%
%ADD13C,0.1524*%
%ADD14C,0.0762*%
%ADD15C,0.1500*%
%ADD16C,0.2540*%
G36*
X611899Y720329D02*
X609359D01*
Y716519D01*
X611899D01*
Y720329D01*
D02*
G37*
G36*
X730517Y834629D02*
X733057D01*
Y830819D01*
X730517D01*
Y834629D01*
D02*
G37*
D10*
X810390Y592690D02*
G03*
X810390Y592690I-1000J0D01*
G01*
X479810Y300990D02*
G03*
X543810Y300990I32000J0D01*
G01*
X406150Y301070D02*
G03*
X470150Y301070I32000J0D01*
G01*
X818452Y394898D02*
G03*
X769760Y463455I-110123J-26644D01*
G01*
X646899D02*
G03*
X598207Y394898I61430J-95201D01*
G01*
X769732Y273002D02*
G03*
X818479Y341604I-61402J95252D01*
G01*
X598179D02*
G03*
X646927Y273002I110150J26650D01*
G01*
X913700Y494920D02*
Y587120D01*
X932700D01*
Y600120D01*
X998700D01*
Y481920D02*
Y600120D01*
X932700Y481920D02*
X998700D01*
X932700D02*
Y494920D01*
X913700D02*
X932700D01*
X1038850Y681536D02*
Y732336D01*
X1007050Y681536D02*
X1038850D01*
X1007050D02*
Y732336D01*
X1038850D01*
X560470Y221140D02*
Y241140D01*
X575470Y256140D02*
X595470D01*
X575470Y206140D02*
X595470D01*
X610470Y221140D02*
Y241140D01*
X595470Y206140D02*
X604470Y215140D01*
X566470D02*
X575470Y206140D01*
X566470Y247140D02*
X575470Y256140D01*
X595470D02*
X604470Y247140D01*
X537929Y320990D02*
X542170Y304598D01*
X481450Y304598D02*
X485691Y320990D01*
X537929D01*
X934262Y438523D02*
X966062D01*
X934262Y387724D02*
Y438523D01*
Y387724D02*
X966062D01*
Y438523D01*
X412031Y321070D02*
X464269D01*
X407790Y304678D02*
X412031Y321070D01*
X464269D02*
X468510Y304678D01*
X646899Y463455D02*
X769760D01*
X646927Y273002D02*
X769732D01*
X818479Y394904D02*
X855579D01*
X818479Y341604D02*
X855579D01*
Y394904D01*
X584679D02*
X598179D01*
X584679Y341604D02*
X598179D01*
X584679D02*
Y394904D01*
X917510Y662560D02*
X936510D01*
Y649560D02*
Y662560D01*
Y649560D02*
X1002510D01*
Y767760D01*
X936510D02*
X1002510D01*
X936510Y754760D02*
Y767760D01*
X917510Y754760D02*
X936510D01*
X917510Y662560D02*
Y754760D01*
X1003240Y562814D02*
X1035040D01*
X1003240Y512014D02*
Y562814D01*
Y512014D02*
X1035040D01*
Y562814D01*
X644797Y846146D02*
Y877946D01*
Y846146D02*
X695597D01*
Y877946D01*
X644797D02*
X695597D01*
X442660Y367280D02*
Y430280D01*
X466660Y367280D02*
Y430280D01*
X461400D02*
X466660D01*
X442660Y367280D02*
X447920D01*
X442660Y430280D02*
X447920D01*
X461400Y367280D02*
X466660D01*
X517280D02*
X522540D01*
X498540Y430280D02*
X503800D01*
X498540Y367280D02*
X503800D01*
X517280Y430280D02*
X522540D01*
Y367280D02*
Y430280D01*
X498540Y367280D02*
Y430280D01*
X442210Y780480D02*
X505210D01*
X442210Y804480D02*
X505210D01*
X442210Y799220D02*
Y804480D01*
X505210Y780480D02*
Y785740D01*
X442210Y780480D02*
Y785740D01*
X505210Y799220D02*
Y804480D01*
X442210Y816040D02*
X505210D01*
X442210Y840040D02*
X505210D01*
X442210Y834780D02*
Y840040D01*
X505210Y816040D02*
Y821300D01*
X442210Y816040D02*
Y821300D01*
X505210Y834780D02*
Y840040D01*
X442210Y851600D02*
X505210D01*
X442210Y875600D02*
X505210D01*
X442210Y870340D02*
Y875600D01*
X505210Y851600D02*
Y856860D01*
X442210Y851600D02*
Y856860D01*
X505210Y870340D02*
Y875600D01*
X444750Y888430D02*
X507750D01*
X444750Y912430D02*
X507750D01*
X444750Y907170D02*
Y912430D01*
X507750Y888430D02*
Y893690D01*
X444750Y888430D02*
Y893690D01*
X507750Y907170D02*
Y912430D01*
X828587Y817606D02*
X891587D01*
X828587Y841606D02*
X891587D01*
X828587Y836346D02*
Y841606D01*
X891587Y817606D02*
Y822866D01*
X828587Y817606D02*
Y822866D01*
X891587Y836346D02*
Y841606D01*
X512060Y706820D02*
Y712080D01*
X575060Y725560D02*
Y730820D01*
X512060Y725560D02*
Y730820D01*
X575060Y706820D02*
Y712080D01*
X512060Y706820D02*
X575060D01*
X512060Y730820D02*
X575060D01*
X828290Y882080D02*
X891290D01*
X828290Y906080D02*
X891290D01*
X828290Y900820D02*
Y906080D01*
X891290Y882080D02*
Y887340D01*
X828290Y882080D02*
Y887340D01*
X891290Y900820D02*
Y906080D01*
X766060Y730820D02*
X829060D01*
X766060Y706820D02*
X829060D01*
Y712080D01*
X766060Y725560D02*
Y730820D01*
X829060Y725560D02*
Y730820D01*
X766060Y706820D02*
Y712080D01*
D11*
X954950Y475420D02*
G03*
X954950Y475420I-1250J0D01*
G01*
X618220Y260640D02*
G03*
X618220Y260640I-1250J0D01*
G01*
X897829Y368254D02*
G03*
X897829Y368254I-1250J0D01*
G01*
X958760Y643060D02*
G03*
X958760Y643060I-1250J0D01*
G01*
D12*
X570810Y468630D02*
G03*
X570810Y468630I-1000J0D01*
G01*
X854390Y509690D02*
Y625690D01*
X814390Y509690D02*
X854390D01*
X814390D02*
Y625690D01*
X854390D01*
X545560Y475960D02*
Y661960D01*
Y475960D02*
X795560D01*
Y661960D01*
X545560D02*
X795560D01*
D13*
X710451Y838845D02*
Y841844D01*
X631965Y709304D02*
Y712302D01*
Y838845D02*
Y841844D01*
X710451D01*
Y709304D02*
Y712302D01*
X631965Y709304D02*
X710451D01*
D14*
X648983Y769224D02*
Y781920D01*
X655331D01*
X657447Y779804D01*
Y775572D01*
X655331Y773456D01*
X648983D01*
X653215D02*
X657447Y769224D01*
X670143Y781920D02*
X661679D01*
Y769224D01*
X670143D01*
X661679Y775572D02*
X665911D01*
X682839Y781920D02*
X674375D01*
Y775572D01*
X678607D01*
X674375D01*
Y769224D01*
X618122Y847622D02*
X626586Y839158D01*
X618122D02*
X626586Y847622D01*
X618122Y843390D02*
X626586D01*
X622354Y839158D02*
Y847622D01*
D15*
X894839Y335026D02*
X887175D01*
X891007Y331194D02*
Y338858D01*
D16*
X905633Y613287D02*
X908172Y615826D01*
Y620905D01*
X905633Y623444D01*
X903094D01*
X900555Y620905D01*
Y615826D01*
X898015Y613287D01*
X895476D01*
X892937Y615826D01*
Y620905D01*
X895476Y623444D01*
X892937Y608209D02*
Y603130D01*
Y605670D01*
X908172D01*
X905633Y608209D01*
X604523Y881377D02*
Y868682D01*
X607062Y866143D01*
X612141D01*
X614680Y868682D01*
Y881377D01*
X619758Y866143D02*
X624837D01*
X622298D01*
Y881377D01*
X619758Y878838D01*
X574043Y191768D02*
X571504Y194307D01*
X566426D01*
X563887Y191768D01*
Y189229D01*
X566426Y186690D01*
X571504D01*
X574043Y184151D01*
Y181612D01*
X571504Y179072D01*
X566426D01*
X563887Y181612D01*
X579122Y194307D02*
Y179072D01*
X584200Y184151D01*
X589278Y179072D01*
Y194307D01*
X604513Y179072D02*
X594357D01*
X604513Y189229D01*
Y191768D01*
X601974Y194307D01*
X596896D01*
X594357Y191768D01*
X809244Y914908D02*
Y930143D01*
X816861D01*
X819401Y927604D01*
Y922525D01*
X816861Y919986D01*
X809244D01*
X814322D02*
X819401Y914908D01*
X824479D02*
X829557D01*
X827018D01*
Y930143D01*
X824479Y927604D01*
X837175D02*
X839714Y930143D01*
X844792D01*
X847332Y927604D01*
Y917447D01*
X844792Y914908D01*
X839714D01*
X837175Y917447D01*
Y927604D01*
X485144Y462282D02*
Y477518D01*
X492762D01*
X495301Y474978D01*
Y469900D01*
X492762Y467361D01*
X485144D01*
X490223D02*
X495301Y462282D01*
X500379Y464822D02*
X502918Y462282D01*
X507997D01*
X510536Y464822D01*
Y474978D01*
X507997Y477518D01*
X502918D01*
X500379Y474978D01*
Y472439D01*
X502918Y469900D01*
X510536D01*
X433074Y458473D02*
Y473708D01*
X440692D01*
X443231Y471168D01*
Y466090D01*
X440692Y463551D01*
X433074D01*
X438153D02*
X443231Y458473D01*
X448309Y471168D02*
X450848Y473708D01*
X455927D01*
X458466Y471168D01*
Y468629D01*
X455927Y466090D01*
X458466Y463551D01*
Y461012D01*
X455927Y458473D01*
X450848D01*
X448309Y461012D01*
Y463551D01*
X450848Y466090D01*
X448309Y468629D01*
Y471168D01*
X450848Y466090D02*
X455927D01*
X533404Y736602D02*
Y751837D01*
X541022D01*
X543561Y749298D01*
Y744220D01*
X541022Y741681D01*
X533404D01*
X538483D02*
X543561Y736602D01*
X548639Y751837D02*
X558796D01*
Y749298D01*
X548639Y739142D01*
Y736602D01*
X747014Y739648D02*
Y754883D01*
X754632D01*
X757171Y752344D01*
Y747265D01*
X754632Y744726D01*
X747014D01*
X752092D02*
X757171Y739648D01*
X772406Y754883D02*
X767327Y752344D01*
X762249Y747265D01*
Y742187D01*
X764788Y739648D01*
X769867D01*
X772406Y742187D01*
Y744726D01*
X769867Y747265D01*
X762249D01*
X378464Y782322D02*
Y797558D01*
X386082D01*
X388621Y795018D01*
Y789940D01*
X386082Y787401D01*
X378464D01*
X383543D02*
X388621Y782322D01*
X403856Y797558D02*
X393699D01*
Y789940D01*
X398778Y792479D01*
X401317D01*
X403856Y789940D01*
Y784862D01*
X401317Y782322D01*
X396238D01*
X393699Y784862D01*
X383544Y819153D02*
Y834388D01*
X391162D01*
X393701Y831848D01*
Y826770D01*
X391162Y824231D01*
X383544D01*
X388623D02*
X393701Y819153D01*
X406397D02*
Y834388D01*
X398779Y826770D01*
X408936D01*
X387354Y855983D02*
Y871217D01*
X394972D01*
X397511Y868678D01*
Y863600D01*
X394972Y861061D01*
X387354D01*
X392433D02*
X397511Y855983D01*
X402589Y868678D02*
X405128Y871217D01*
X410207D01*
X412746Y868678D01*
Y866139D01*
X410207Y863600D01*
X407668D01*
X410207D01*
X412746Y861061D01*
Y858522D01*
X410207Y855983D01*
X405128D01*
X402589Y858522D01*
X388624Y895352D02*
Y910587D01*
X396242D01*
X398781Y908048D01*
Y902970D01*
X396242Y900431D01*
X388624D01*
X393703D02*
X398781Y895352D01*
X414016D02*
X403859D01*
X414016Y905509D01*
Y908048D01*
X411477Y910587D01*
X406398D01*
X403859Y908048D01*
X809752Y850392D02*
Y865627D01*
X817370D01*
X819909Y863088D01*
Y858009D01*
X817370Y855470D01*
X809752D01*
X814830D02*
X819909Y850392D01*
X824987D02*
X830065D01*
X827526D01*
Y865627D01*
X824987Y863088D01*
X505461Y250192D02*
Y260348D01*
X502922Y262887D01*
X497843D01*
X495304Y260348D01*
Y250192D01*
X497843Y247652D01*
X502922D01*
X500382Y252731D02*
X505461Y247652D01*
X502922D02*
X505461Y250192D01*
X520696Y247652D02*
X510539D01*
X520696Y257809D01*
Y260348D01*
X518157Y262887D01*
X513078D01*
X510539Y260348D01*
X391160Y299722D02*
Y309878D01*
X388621Y312418D01*
X383543D01*
X381003Y309878D01*
Y299722D01*
X383543Y297183D01*
X388621D01*
X386082Y302261D02*
X391160Y297183D01*
X388621D02*
X391160Y299722D01*
X396238Y297183D02*
X401317D01*
X398778D01*
Y312418D01*
X396238Y309878D01*
X939809Y610872D02*
Y626107D01*
X947427D01*
X949966Y623568D01*
Y618489D01*
X947427Y615950D01*
X939809D01*
X955044Y621028D02*
Y610872D01*
Y615950D01*
X957583Y618489D01*
X960123Y621028D01*
X962662D01*
X972818Y610872D02*
X977897D01*
X980436Y613411D01*
Y618489D01*
X977897Y621028D01*
X972818D01*
X970279Y618489D01*
Y613411D01*
X972818Y610872D01*
X990593Y605793D02*
X993132D01*
X995671Y608332D01*
Y621028D01*
X988053D01*
X985514Y618489D01*
Y613411D01*
X988053Y610872D01*
X995671D01*
X939808Y791208D02*
Y775973D01*
Y783590D01*
X949965D01*
Y791208D01*
Y775973D01*
X957582Y786129D02*
X962660D01*
X965200Y783590D01*
Y775973D01*
X957582D01*
X955043Y778512D01*
X957582Y781051D01*
X965200D01*
X970278Y775973D02*
X975356D01*
X972817D01*
Y791208D01*
X970278D01*
X982974Y775973D02*
X988052D01*
X985513D01*
Y791208D01*
X982974D01*
X548643Y684528D02*
Y669293D01*
X556261D01*
X558800Y671832D01*
Y681988D01*
X556261Y684528D01*
X548643D01*
X563878Y669293D02*
X568957D01*
X566418D01*
Y684528D01*
X563878Y681988D01*
X967741Y377188D02*
X965202Y379728D01*
X960123D01*
X957584Y377188D01*
Y367032D01*
X960123Y364492D01*
X965202D01*
X967741Y367032D01*
X980437Y364492D02*
Y379728D01*
X972819Y372110D01*
X982976D01*
X661781Y903606D02*
X659242Y906145D01*
X654164D01*
X651625Y903606D01*
Y893449D01*
X654164Y890910D01*
X659242D01*
X661781Y893449D01*
X666860Y903606D02*
X669399Y906145D01*
X674477D01*
X677017Y903606D01*
Y901067D01*
X674477Y898528D01*
X671938D01*
X674477D01*
X677017Y895988D01*
Y893449D01*
X674477Y890910D01*
X669399D01*
X666860Y893449D01*
X1052831Y542288D02*
X1050292Y544827D01*
X1045213D01*
X1042674Y542288D01*
Y532132D01*
X1045213Y529593D01*
X1050292D01*
X1052831Y532132D01*
X1068066Y529593D02*
X1057909D01*
X1068066Y539749D01*
Y542288D01*
X1065527Y544827D01*
X1060448D01*
X1057909Y542288D01*
X1018791Y753614D02*
X1016252Y756153D01*
X1011173D01*
X1008634Y753614D01*
Y743457D01*
X1011173Y740918D01*
X1016252D01*
X1018791Y743457D01*
X1023869Y740918D02*
X1028947D01*
X1026408D01*
Y756153D01*
X1023869Y753614D01*
X693103Y267122D02*
Y251886D01*
X700721D01*
X703260Y254426D01*
Y256965D01*
X700721Y259504D01*
X693103D01*
X700721D01*
X703260Y262043D01*
Y264582D01*
X700721Y267122D01*
X693103D01*
X708338D02*
X718495D01*
X713417D01*
Y251886D01*
X723573D02*
X728652D01*
X726113D01*
Y267122D01*
X723573Y264582D01*
M02*
