M48
;Layer_Color=9474304
;FILE_FORMAT=4:4
METRIC,LZ
;TYPE=PLATED
T01F00S00C0.7000
T02F00S00C0.7100
T03F00S00C0.8000
T04F00S00C0.8500
T05F00S00C1.0000
T06F00S00C1.0160
T07F00S00C1.6500
%
T01
X0056896Y0049276
X0059436
X0061976
X0064516
X0067056
X0069596
X0072136
X0074676
X0077216
X0052681Y0029099
X0051181Y0030599
X0045315Y0029107
X0043815Y0030607
X0056896Y0064516
X0059436
X0061976
X0064516
X0067056
X0069596
X0072136
X0074676
X0077216
T02
X00950162Y00400424
Y00425824
X0101914Y00524714
X00682897Y00862046
X00657497
X0102295Y00719636
Y00694236
X0101914Y00550114
T03
X0042315Y0029107
X0049681Y0029099
T04
X0045466Y0035378
X0051054
Y0044378
X0045466
X0049856Y0071882
X0051871Y0079248
Y0082804
Y008636
X0052125Y0090043
X0043125
X0042871Y008636
Y0082804
Y0079248
X0058856Y0071882
X0075256
X0084256
X00815087Y00829606
X0081479Y0089408
X0090479
X00905087Y00829606
T05
X0083439Y0054269
Y0056769
T06
X0083439Y0059269
T07
X009527Y0050142
Y0054102
Y0058062
X0095651Y0066906
Y0070866
Y0074826
M30
