G04*
G04 #@! TF.GenerationSoftware,Altium Limited,Altium Designer,26.3.0 (6)*
G04*
G04 Layer_Physical_Order=1*
G04 Layer_Color=255*
%FSLAX44Y44*%
%MOMM*%
G71*
G04*
G04 #@! TF.SameCoordinates,B5802CA9-BCF9-4A3E-B916-5DC5D81B4571*
G04*
G04*
G04 #@! TF.FilePolarity,Positive*
G04*
G01*
G75*
%ADD16C,0.2540*%
%ADD17R,1.7000X1.0000*%
%ADD18R,1.8796X0.5588*%
%ADD19R,3.1500X4.7800*%
%ADD32C,1.5080*%
%ADD33C,1.2100*%
%ADD34C,2.1500*%
%ADD35R,2.1500X2.1500*%
%ADD36C,1.1000*%
%ADD37C,1.3500*%
%ADD38R,1.3500X1.3500*%
%ADD39R,1.3500X1.3500*%
%ADD40C,1.2080*%
%ADD41R,1.2080X1.2080*%
D16*
X834390Y542280D02*
Y542690D01*
Y542280D02*
X906451Y470219D01*
X823040Y506951D02*
X868032Y461959D01*
X823040Y506951D02*
Y556340D01*
X834390Y567690D01*
X883509Y333770D02*
X893068D01*
X949861Y400122D02*
X960022Y410284D01*
X949861Y390564D02*
Y400122D01*
X893068Y333770D02*
X949861Y390564D01*
X960022Y410284D02*
Y429908D01*
X906451Y470219D02*
X919711D01*
X960022Y429908D01*
X761879Y212140D02*
X883509Y333770D01*
X616970Y212140D02*
X761879D01*
X718579Y781924D02*
X788201D01*
X846443Y840166D01*
X915647Y825232D02*
Y833980D01*
X909461Y840166D02*
X915647Y833980D01*
X906390Y815975D02*
X915647Y825232D01*
X906390Y720282D02*
Y815975D01*
X846443Y840166D02*
X909461D01*
X906390Y720282D02*
X930910Y695762D01*
Y562810D02*
X952700Y541020D01*
X930910Y562810D02*
Y695762D01*
X868032Y366560D02*
Y461959D01*
X453150Y290964D02*
X475394Y268720D01*
X528914D01*
X434294Y296760D02*
X446961D01*
X452651Y291070D01*
X453150D01*
X892657Y340544D02*
X919368Y367254D01*
Y383573D01*
X946078Y410284D01*
X948674D01*
X950162Y411771D01*
X686792Y338850D02*
X885360D01*
X887054Y340544D02*
X892657D01*
X566623Y366560D02*
X569430D01*
X950162Y411771D02*
Y425824D01*
X885360Y338850D02*
X887054Y340544D01*
X569430Y366560D02*
X578680Y357310D01*
Y334404D02*
Y357310D01*
X564929Y368254D02*
X566623Y366560D01*
X553797Y309521D02*
X578680Y334404D01*
X530402Y270208D02*
X553797Y293603D01*
X530402Y270208D02*
X550470Y250140D01*
X682897Y862046D02*
X708944D01*
X718579Y852411D01*
Y832724D02*
Y852411D01*
X584192Y236250D02*
X686792Y338850D01*
X553797Y293603D02*
Y309521D01*
X419294Y300380D02*
X430674D01*
X434294Y296760D01*
X413840Y294926D02*
X419294Y300380D01*
X413840Y287214D02*
Y294926D01*
X528914Y268720D02*
X530402Y270208D01*
X526810Y273800D02*
X530402Y270208D01*
X550470Y250140D02*
X553970D01*
X464804Y236250D02*
X584192D01*
X526810Y273800D02*
Y290990D01*
X413840Y287214D02*
X464804Y236250D01*
X972374Y669060D02*
X1022950Y719636D01*
X956510Y669060D02*
X972374D01*
X439984Y291070D02*
X489724Y241330D01*
X423150Y291070D02*
X439984D01*
X489724Y241330D02*
X564048D01*
X769812Y203330D02*
X986071Y419589D01*
X566280Y203330D02*
X769812D01*
X986071Y419589D02*
Y505589D01*
X521250Y900430D02*
X601656Y820024D01*
X623837D01*
X691744Y827555D02*
X711975Y807324D01*
X673037Y857962D02*
X691744Y839255D01*
Y827555D02*
Y839255D01*
X711975Y807324D02*
X718579D01*
X673037Y857962D02*
Y866130D01*
X678813Y871906D01*
X778798D01*
X805458Y845246D01*
X911565D01*
X814790Y894080D02*
X831884Y876986D01*
X911470Y722386D02*
X939756Y694100D01*
X911470Y722386D02*
Y813870D01*
X950479Y733700D02*
X952061D01*
X939756Y694100D02*
X962541D01*
X971070Y702629D01*
X952061Y733700D02*
X971070Y714691D01*
Y702629D02*
Y714691D01*
X920727Y823128D02*
Y836084D01*
X831884Y876986D02*
X894194D01*
X911565Y845246D02*
X920727Y836084D01*
X911470Y813870D02*
X920727Y823128D01*
X930887Y753292D02*
X950479Y733700D01*
X894194Y876986D02*
X930887Y840293D01*
Y753292D02*
Y840293D01*
X594676Y743824D02*
X623837D01*
X578000Y727148D02*
X594676Y743824D01*
X578000Y710492D02*
Y727148D01*
Y710492D02*
X608626Y679866D01*
X624384D01*
X655010Y649240D01*
Y641080D02*
Y649240D01*
X629610Y615680D02*
X655010Y641080D01*
X629610Y488680D02*
Y615680D01*
X618760Y477830D02*
X629610Y488680D01*
X611576Y477830D02*
X618760D01*
X606496Y472750D02*
X611576Y477830D01*
X528950Y472750D02*
X606496D01*
X510540Y454340D02*
X528950Y472750D01*
X510540Y443780D02*
Y454340D01*
X756524Y820024D02*
X766106Y829606D01*
X815087D01*
X718579Y820024D02*
X756524D01*
X588956Y718424D02*
X623837D01*
X588560Y718820D02*
X588956Y718424D01*
X655010Y656424D02*
Y706555D01*
Y581660D02*
Y633896D01*
X574000Y433070D02*
X613680Y472750D01*
X634690Y486576D02*
Y493760D01*
X620864Y472750D02*
X634690Y486576D01*
X655010Y656424D02*
X660090Y651344D01*
Y638976D02*
Y651344D01*
X655010Y633896D02*
X660090Y638976D01*
X634690Y493760D02*
X635310Y494380D01*
X613680Y472750D02*
X620864D01*
X635310Y561960D02*
X655010Y581660D01*
X635310Y494380D02*
Y561960D01*
X494227Y433070D02*
X574000D01*
X483517Y443780D02*
X494227Y433070D01*
X623837Y731124D02*
X630441D01*
X655010Y706555D01*
X454660Y443780D02*
X483517D01*
X657213Y862330D02*
X657497Y862046D01*
X636270Y862330D02*
X657213D01*
X623837Y832724D02*
Y849897D01*
X636270Y862330D01*
X718579Y718424D02*
X718777Y718622D01*
X752362D01*
X752560Y718820D01*
X932380Y708660D02*
X956510D01*
X673037Y833562D02*
X711975Y794624D01*
X916550Y724490D02*
X932380Y708660D01*
X711975Y794624D02*
X718579D01*
X667957Y855857D02*
Y868234D01*
X899301Y850326D02*
X913670D01*
X925807Y821023D02*
Y838188D01*
X673037Y833562D02*
Y850778D01*
X667957Y868234D02*
X676709Y876986D01*
X913670Y850326D02*
X925807Y838188D01*
X916550Y724490D02*
Y811766D01*
X881393Y868234D02*
X899301Y850326D01*
X676709Y876986D02*
X780902D01*
X789653Y868234D01*
X881393D01*
X667957Y855857D02*
X673037Y850778D01*
X916550Y811766D02*
X925807Y821023D01*
X599018Y807324D02*
X623837D01*
X570681Y835660D02*
X599018Y807324D01*
X547920Y835660D02*
X570681D01*
X518710Y864870D02*
X547920Y835660D01*
X518710Y828040D02*
X552747D01*
X586163Y794624D01*
X623837D01*
X518710Y792480D02*
X529266Y781924D01*
X623837D01*
X561760Y310300D02*
X705810Y454350D01*
Y635310D01*
X510540Y353780D02*
X511175Y353145D01*
Y306625D02*
Y353145D01*
Y306625D02*
X511810Y305990D01*
X496810Y354984D02*
X561967Y420141D01*
X496810Y290990D02*
Y354984D01*
X438150Y337270D02*
X454660Y353780D01*
X438150Y306070D02*
Y337270D01*
X695960Y645160D02*
X705810Y635310D01*
X566280Y243562D02*
Y274671D01*
X564048Y241330D02*
X566280Y243562D01*
X561760Y279191D02*
Y310300D01*
Y279191D02*
X566280Y274671D01*
X670560Y573404D02*
Y645160D01*
X660710Y563554D02*
X670560Y573404D01*
X660710Y494380D02*
Y563554D01*
X586471Y420141D02*
X660710Y494380D01*
X561967Y420141D02*
X586471D01*
X491212Y565428D02*
X521692D01*
X594360Y492760D01*
X418134Y817464D02*
X428710Y828040D01*
X418134Y736534D02*
Y817464D01*
X411800Y730200D02*
X418134Y736534D01*
X420370Y636270D02*
Y701667D01*
Y636270D02*
X491212Y565428D01*
X411800Y710238D02*
Y730200D01*
Y710238D02*
X420370Y701667D01*
X776683Y675083D02*
X817711D01*
X746760Y645160D02*
X776683Y675083D01*
X876939Y801458D02*
X905087Y829606D01*
X876939Y734311D02*
Y801458D01*
X817711Y675083D02*
X876939Y734311D01*
X721360Y645160D02*
X756363Y680163D01*
X803903D01*
X842560Y718820D01*
X594360Y643890D02*
Y645160D01*
X475275Y669803D02*
X504688Y640390D01*
X475275Y695535D02*
X498560Y718820D01*
X475275Y669803D02*
Y695535D01*
X580390Y629920D02*
X594360Y643890D01*
X570270Y629920D02*
X580390D01*
X504688Y640390D02*
X559800D01*
X570270Y629920D01*
X439270Y743301D02*
Y874476D01*
X436730Y877016D02*
X439270Y874476D01*
X421960Y725991D02*
X439270Y743301D01*
X431250Y900430D02*
X436730Y894950D01*
Y877016D02*
Y894950D01*
X421960Y714446D02*
Y725991D01*
X624840Y624840D02*
X645160Y645160D01*
X568166Y624840D02*
X624840D01*
X501096Y635310D02*
X557696D01*
X421960Y714446D02*
X501096Y635310D01*
X557696D02*
X568166Y624840D01*
X428710Y850738D02*
Y864870D01*
X413054Y835082D02*
X428710Y850738D01*
X413054Y631198D02*
Y701799D01*
Y738638D02*
Y835082D01*
X406720Y732304D02*
X413054Y738638D01*
X406720Y708133D02*
X413054Y701799D01*
X406720Y708133D02*
Y732304D01*
X609910Y482910D02*
X619760Y492760D01*
X605624Y482910D02*
X609910D01*
X600544Y477830D02*
X605624Y482910D01*
X561342D02*
X571626D01*
X413054Y631198D02*
X561342Y482910D01*
X576706Y477830D02*
X600544D01*
X571626Y482910D02*
X576706Y477830D01*
X598440Y482910D02*
X604210Y488680D01*
Y525012D01*
X578810Y482910D02*
X598440D01*
X416880Y728096D02*
X428710Y739926D01*
Y792480D01*
X416880Y712342D02*
Y728096D01*
Y712342D02*
X604210Y525012D01*
X568960Y492760D02*
X578810Y482910D01*
X1032810Y715552D02*
Y766060D01*
X1024194Y706936D02*
X1032810Y715552D01*
X1021706Y706936D02*
X1024194D01*
X1013090Y698320D02*
X1021706Y706936D01*
X1013090Y630130D02*
Y698320D01*
X1029000Y546030D02*
Y614220D01*
X1013090Y630130D02*
X1029000Y614220D01*
X1020384Y537414D02*
X1029000Y546030D01*
X1017896Y537414D02*
X1020384D01*
X904790Y894080D02*
X1032810Y766060D01*
X986071Y505589D02*
X1017896Y537414D01*
X553970Y212140D02*
X557470D01*
X566280Y203330D01*
X952700Y501420D02*
X1001394Y550114D01*
X1019140D01*
D17*
X616970Y212140D02*
D03*
X553970Y250140D02*
D03*
X616970D02*
D03*
X553970Y212140D02*
D03*
D18*
X718579Y781924D02*
D03*
Y832724D02*
D03*
X623837Y718424D02*
D03*
Y781924D02*
D03*
Y794624D02*
D03*
Y820024D02*
D03*
X718579D02*
D03*
Y807324D02*
D03*
Y794624D02*
D03*
Y769224D02*
D03*
Y756524D02*
D03*
Y743824D02*
D03*
Y731124D02*
D03*
Y718424D02*
D03*
X623837Y743824D02*
D03*
Y756524D02*
D03*
Y769224D02*
D03*
Y807324D02*
D03*
Y832724D02*
D03*
Y731124D02*
D03*
D19*
X875329Y368254D02*
D03*
X564929D02*
D03*
D32*
X834390Y542690D02*
D03*
Y567690D02*
D03*
Y592690D02*
D03*
D33*
X950162Y400424D02*
D03*
X1022950Y694236D02*
D03*
X682897Y862046D02*
D03*
X1019140Y524714D02*
D03*
X950162Y425824D02*
D03*
X1022950Y719636D02*
D03*
X657497Y862046D02*
D03*
X1019140Y550114D02*
D03*
D34*
X952700Y541020D02*
D03*
Y580620D02*
D03*
X956510Y748260D02*
D03*
Y708660D02*
D03*
D35*
X952700Y501420D02*
D03*
X956510Y669060D02*
D03*
D36*
X526810Y290990D02*
D03*
X453150Y291070D02*
D03*
X496810Y290990D02*
D03*
X511810Y305990D02*
D03*
X438150Y306070D02*
D03*
X423150Y291070D02*
D03*
D37*
X521250Y900430D02*
D03*
X752560Y718820D02*
D03*
X518710Y863600D02*
D03*
Y828040D02*
D03*
Y792480D02*
D03*
X454660Y353780D02*
D03*
X510540D02*
D03*
X905087Y829606D02*
D03*
X498560Y718820D02*
D03*
X904790Y894080D02*
D03*
D38*
X814790D02*
D03*
X815087Y829606D02*
D03*
X588560Y718820D02*
D03*
X428710Y828040D02*
D03*
X842560Y718820D02*
D03*
X431250Y900430D02*
D03*
X428710Y863600D02*
D03*
Y792480D02*
D03*
D39*
X510540Y443780D02*
D03*
X454660D02*
D03*
D40*
X695960Y645160D02*
D03*
X568960D02*
D03*
X619760D02*
D03*
X670560D02*
D03*
X721360D02*
D03*
X746760D02*
D03*
X772160Y492760D02*
D03*
X746760D02*
D03*
X645160D02*
D03*
X619760D02*
D03*
X772160Y645160D02*
D03*
X645160D02*
D03*
X594360Y492760D02*
D03*
X695960D02*
D03*
X670560D02*
D03*
X721360D02*
D03*
X594360Y645160D02*
D03*
D41*
X568960Y492760D02*
D03*
M02*
